<svg width="116" height="32" viewBox="0 0 116 32" fill="none" xmlns="http://www.w3.org/2000/svg">
<g clip-path="url(#clip0_306_6422)">
<path d="M39.1758 9.18201H41.7655L47.8339 18.5418V9.18201H50.5331V23.4038H47.9364L41.8735 14.0739V23.4038H39.1758V9.18201Z" fill="#131212"/>
<path d="M60.4361 12.8846H63.0682V23.4035H60.4361V22.2904C59.9218 22.7808 59.4065 23.1338 58.8903 23.3493C58.3575 23.5679 57.7867 23.6777 57.2111 23.6721C55.857 23.6721 54.6854 23.1453 53.6961 22.0916C52.7069 21.0379 52.2127 19.7279 52.2134 18.1615C52.2134 16.5368 52.6917 15.2057 53.6482 14.1682C54.6048 13.1307 55.7668 12.6119 57.1345 12.6119C57.7434 12.6077 58.3466 12.7295 58.9064 12.9696C59.4815 13.224 60.0016 13.5885 60.4376 14.0427L60.4361 12.8846ZM57.6688 15.05C56.8555 15.05 56.1797 15.3386 55.6416 15.9157C55.1034 16.4928 54.8344 17.2323 54.8344 18.1342C54.8344 19.0428 55.1082 19.7906 55.6557 20.3775C56.2033 20.9644 56.8775 21.2576 57.6783 21.2573C58.5048 21.2573 59.1902 20.9688 59.7349 20.3916C60.2794 19.8146 60.5516 19.0589 60.5516 18.1246C60.5516 17.2092 60.2794 16.4671 59.7349 15.8985C59.1902 15.3298 58.5016 15.047 57.6688 15.05Z" fill="#131212"/>
<path d="M64.2109 12.8855H66.8925L69.5422 19.0923L72.187 12.8855H74.8549L70.3909 23.4044H68.6846L64.2109 12.8855Z" fill="#131212"/>
<path d="M83.3459 12.8854H85.9775V23.4043H83.3459V22.2913C82.8316 22.7816 82.3163 23.1346 81.8 23.3501C81.266 23.5692 80.6938 23.679 80.1169 23.6729C78.7624 23.6729 77.5907 23.1461 76.6019 22.0924C75.613 21.0387 75.1197 19.7294 75.1221 18.1643C75.1221 16.5396 75.6004 15.2085 76.5569 14.171C77.5136 13.1335 78.6756 12.6148 80.0433 12.6148C80.652 12.6105 81.255 12.7323 81.8146 12.9725C82.3898 13.2269 82.9099 13.5914 83.3459 14.0455V12.8854ZM80.5786 15.0508C79.7653 15.0508 79.0895 15.3394 78.5514 15.9165C78.0132 16.4936 77.7442 17.2331 77.7442 18.135C77.7442 19.0436 78.0179 19.7914 78.5655 20.3783C79.1131 20.9652 79.7873 21.2584 80.5881 21.2581C81.4146 21.2581 82.1 20.9695 82.6446 20.3925C83.1892 19.8154 83.4614 19.0597 83.4614 18.1254C83.4614 17.21 83.1892 16.4679 82.6446 15.8993C82.1 15.3306 81.4117 15.0478 80.5786 15.0508Z" fill="#131212"/>
<path d="M88.2427 12.8853H90.8748V13.963C91.4715 13.457 92.0122 13.1061 92.4968 12.9101C92.9688 12.7157 93.474 12.6153 93.9842 12.6147C95.0242 12.6147 95.9068 12.9788 96.632 13.707C97.2414 14.3259 97.5463 15.2411 97.5466 16.4527V23.4042H94.9433V18.7977C94.9433 17.5423 94.8872 16.7087 94.7748 16.2968C94.6624 15.885 94.4669 15.571 94.188 15.3548C93.9092 15.1393 93.5646 15.0315 93.1542 15.0315C92.6449 15.0226 92.1525 15.2151 91.7835 15.5673C91.402 15.9248 91.1375 16.4191 90.9899 17.0502C90.9131 17.3783 90.8748 18.0897 90.8748 19.1842V23.4042H88.2427V12.8853Z" fill="#131212"/>
<path d="M100.016 9.00809H102.648V12.885H104.212V15.1572H102.648V23.4039H100.016V15.1572H98.6655V12.885H100.016V9.00809Z" fill="#131212"/>
<path d="M112.964 12.8855H115.596V23.4044H112.964V22.2912C112.45 22.7817 111.934 23.1347 111.418 23.3502C110.885 23.5694 110.314 23.6794 109.738 23.674C108.383 23.674 107.211 23.1471 106.223 22.0934C105.234 21.0398 104.74 19.7297 104.74 18.1634C104.74 16.5387 105.218 15.2076 106.175 14.1701C107.131 13.1326 108.293 12.6138 109.661 12.6138C110.27 12.6095 110.873 12.7313 111.432 12.9715C112.008 13.2259 112.528 13.5904 112.964 14.0446V12.8855ZM110.197 15.0509C109.383 15.0509 108.708 15.3394 108.17 15.9165C107.631 16.4936 107.362 17.2331 107.362 18.1351C107.362 19.0437 107.636 19.7915 108.184 20.3784C108.731 20.9652 109.405 21.2585 110.206 21.2582C111.033 21.2582 111.718 20.9696 112.263 20.3926C112.807 19.8154 113.08 19.0598 113.08 18.1254C113.08 17.21 112.807 16.468 112.263 15.8993C111.718 15.3307 111.03 15.0479 110.197 15.0509Z" fill="#131212"/>
<path d="M41.1725 30.4996H39.0625V26.5059H41.0836V26.9294H39.5288V28.2568H40.966V28.6818H39.5278V30.0791H41.1714L41.1725 30.4996Z" fill="#131212"/>
<path d="M44.2357 30.4989H43.7815V28.8734C43.7815 28.2682 43.5613 27.9658 43.1209 27.9661C43.0132 27.9639 42.9064 27.9862 42.8085 28.0311C42.7105 28.076 42.624 28.1426 42.5552 28.2257C42.4026 28.4068 42.3228 28.6385 42.3316 28.8755V30.5009H41.8774V27.6488H42.3316V28.1245H42.3427C42.5574 27.7641 42.8682 27.5842 43.2753 27.5845C43.5862 27.5845 43.8241 27.6857 43.9889 27.8881C44.1538 28.0905 44.236 28.3814 44.2357 28.7606V30.4989Z" fill="#131212"/>
<path d="M47.128 30.4997H46.6738V30.0543H46.6627C46.4646 30.3961 46.173 30.5668 45.7882 30.5665C45.5052 30.5665 45.2837 30.4914 45.1235 30.3413C44.9634 30.1911 44.883 29.9923 44.8823 29.7446C44.8823 29.2123 45.195 28.9024 45.8205 28.815L46.6728 28.6951C46.6728 28.2107 46.4775 27.9685 46.0869 27.9689C45.7456 27.9685 45.4159 28.0933 45.1599 28.3197V27.8521C45.4493 27.6711 45.7848 27.5783 46.1258 27.5848C46.7939 27.5848 47.128 27.9391 47.128 28.6475V30.4997ZM46.6738 29.0579L45.988 29.1526C45.7771 29.1823 45.6179 29.2347 45.5106 29.3099C45.4033 29.3852 45.3496 29.5183 45.3496 29.7092C45.3477 29.7735 45.36 29.8375 45.3856 29.8965C45.4113 29.9554 45.4497 30.008 45.498 30.0503C45.6087 30.1425 45.7499 30.1896 45.8936 30.1824C45.9984 30.1853 46.1026 30.1655 46.199 30.1245C46.2955 30.0834 46.3821 30.0221 46.4528 29.9445C46.6023 29.7797 46.6813 29.5625 46.6728 29.3398L46.6738 29.0579Z" fill="#131212"/>
<path d="M48.4505 30.0869H48.4394V30.4987H47.9854V26.2797H48.4394V28.1517H48.4505C48.6745 27.7732 49.0022 27.584 49.4334 27.584C49.7976 27.584 50.0836 27.7116 50.2911 27.9666C50.4986 28.2215 50.6018 28.5634 50.6008 28.992C50.6008 29.4687 50.4851 29.8502 50.2537 30.137C50.0223 30.4237 49.706 30.567 49.3046 30.567C48.9279 30.566 48.6433 30.406 48.4505 30.0869ZM48.4394 28.9373V29.3356C48.4344 29.5578 48.5167 29.7731 48.6685 29.9351C48.7501 30.0188 48.8486 30.0839 48.9574 30.1262C49.0662 30.1685 49.1828 30.1869 49.2993 30.1802C49.4158 30.1735 49.5296 30.1417 49.6328 30.0872C49.7361 30.0328 49.8265 29.9568 49.898 29.8643C50.0544 29.6527 50.1326 29.3586 50.1326 28.9819C50.1326 28.6645 50.0594 28.416 49.9131 28.2362C49.842 28.1479 49.7512 28.0777 49.6481 28.0308C49.5449 27.984 49.4324 27.962 49.3193 27.9666C49.1991 27.962 49.0794 27.9846 48.969 28.0324C48.8586 28.0803 48.7602 28.1524 48.6811 28.2433C48.517 28.4363 48.4308 28.6839 48.4394 28.9373Z" fill="#131212"/>
<path d="M51.7812 30.4987H51.3271V26.2797H51.7812V30.4987Z" fill="#131212"/>
<path d="M52.9349 26.9261C52.8965 26.9268 52.8582 26.9198 52.8225 26.9055C52.7868 26.8912 52.7544 26.8698 52.7271 26.8426C52.6987 26.8154 52.6765 26.7825 52.6616 26.746C52.6467 26.7096 52.6396 26.6704 52.6407 26.6311C52.6401 26.592 52.6472 26.5532 52.6617 26.5169C52.6763 26.4806 52.6979 26.4476 52.7252 26.4199C52.7527 26.3921 52.7854 26.3701 52.8214 26.3552C52.8574 26.3403 52.896 26.3327 52.9349 26.333C52.9742 26.3322 53.0133 26.3394 53.0498 26.354C53.0863 26.3686 53.1194 26.3903 53.1475 26.418C53.1751 26.4457 53.197 26.4786 53.212 26.5147C53.227 26.5509 53.2347 26.5896 53.2347 26.6288C53.2347 26.6679 53.227 26.7068 53.212 26.7429C53.197 26.7791 53.1751 26.812 53.1475 26.8396C53.1196 26.8676 53.0866 26.8898 53.0501 26.9046C53.0136 26.9195 52.9743 26.9268 52.9349 26.9261ZM53.157 30.4998H52.7028V27.6497H53.157V30.4998Z" fill="#131212"/>
<path d="M56.4382 30.4989H55.9841V28.8734C55.9841 28.2682 55.7638 27.9658 55.3235 27.9661C55.216 27.9637 55.1095 27.9857 55.0116 28.0303C54.9138 28.0749 54.8272 28.141 54.7583 28.2237C54.6059 28.4049 54.5262 28.6366 54.5347 28.8734V30.4989H54.0806V27.6488H54.5347V28.1245H54.5458C54.7608 27.7641 55.0718 27.5842 55.4789 27.5845C55.7898 27.5845 56.0275 27.6857 56.192 27.8881C56.3565 28.0905 56.4389 28.3814 56.4393 28.7606L56.4382 30.4989Z" fill="#131212"/>
<path d="M59.7206 30.2707C59.7206 31.3163 59.2209 31.8391 58.2217 31.8391C57.9029 31.8457 57.5872 31.7764 57.3004 31.6368V31.1814C57.6206 31.3595 57.9259 31.4485 58.2161 31.4485C58.9157 31.4485 59.2655 31.0757 59.2655 30.3299V30.0183H59.2544C59.0381 30.3819 58.7124 30.5636 58.2771 30.5636C57.924 30.5636 57.6396 30.437 57.424 30.1837C57.2084 29.9304 57.1006 29.5904 57.1006 29.1638C57.1006 28.6793 57.2168 28.2946 57.4493 28.0092C57.6817 27.7238 57.9994 27.581 58.4023 27.5807C58.7854 27.5807 59.0695 27.7346 59.2544 28.0426H59.2655V27.6495H59.7196L59.7206 30.2707ZM59.2666 29.2082V28.7883C59.2683 28.681 59.2491 28.5744 59.2098 28.4745C59.1705 28.3747 59.1119 28.2837 59.0375 28.2065C58.965 28.128 58.8766 28.0659 58.7784 28.0242C58.68 27.9825 58.5741 27.9622 58.4674 27.9646C58.1859 27.9646 57.9655 28.0672 57.8064 28.2723C57.6474 28.4774 57.5678 28.7641 57.5678 29.1323C57.5678 29.4494 57.6442 29.7024 57.7969 29.8912C57.8683 29.9832 57.9603 30.0569 58.0656 30.1065C58.1708 30.1561 58.2861 30.1801 58.4023 30.1766C58.5199 30.1804 58.6367 30.1578 58.7445 30.1106C58.8522 30.0635 58.9482 29.9929 59.0254 29.9039C59.1855 29.7258 59.2655 29.4947 59.2655 29.2103L59.2666 29.2082Z" fill="#131212"/>
<path d="M62.7266 30.4996H62.2603V26.5059H62.7266V30.4996Z" fill="#131212"/>
<path d="M66.0706 30.4989H65.6164V28.8734C65.6164 28.2682 65.3963 27.9658 64.9558 27.9661C64.8484 27.9638 64.7418 27.9858 64.644 28.0304C64.5462 28.075 64.4596 28.141 64.3906 28.2237C64.2382 28.4049 64.1585 28.6366 64.1671 28.8734V30.4989H63.7129V27.6488H64.1671V28.1245H64.1782C64.3931 27.7641 64.7041 27.5842 65.1112 27.5845C65.4221 27.5845 65.6598 27.6857 65.8243 27.8881C65.9888 28.0905 66.0712 28.3814 66.0716 28.7606L66.0706 30.4989Z" fill="#131212"/>
<path d="M68.2462 30.4721C68.1144 30.5368 67.9685 30.5673 67.8218 30.5611C67.3239 30.5611 67.075 30.2828 67.075 29.7261V28.0395H66.5864V27.6498H67.075V26.9539L67.5291 26.8062V27.6498H68.2452V28.0395H67.5291V29.6436C67.5291 29.8343 67.5614 29.971 67.6265 30.0525C67.6916 30.134 67.7986 30.175 67.9485 30.175C68.0552 30.1776 68.1596 30.1443 68.2452 30.0804L68.2462 30.4721Z" fill="#131212"/>
<path d="M71.137 29.1879H69.13C69.1371 29.505 69.2222 29.7501 69.3854 29.9232C69.5486 30.0962 69.7724 30.1825 70.057 30.1818C70.3789 30.1811 70.6907 30.069 70.9397 29.8645V30.2931C70.6901 30.475 70.3597 30.5659 69.9485 30.5659C69.5472 30.5659 69.2318 30.4365 69.0023 30.1777C68.7729 29.9189 68.6586 29.5553 68.6597 29.0867C68.6597 28.6434 68.785 28.2821 69.0356 28.0027C69.1512 27.8685 69.2948 27.7613 69.4562 27.6889C69.6176 27.6165 69.7929 27.5806 69.9697 27.5837C70.3419 27.5837 70.6296 27.7043 70.8332 27.9456C71.0367 28.1868 71.1376 28.5216 71.136 28.9501L71.137 29.1879ZM70.6707 28.8013C70.6687 28.5374 70.6053 28.3323 70.4804 28.1859C70.3556 28.0395 70.182 27.9663 69.9596 27.9663C69.8575 27.9646 69.7562 27.9842 69.6621 28.024C69.568 28.0637 69.4833 28.1227 69.4131 28.197C69.2576 28.3629 69.1601 28.575 69.1355 28.8013H70.6707Z" fill="#131212"/>
<path d="M72.2807 30.4987H71.8267V26.2797H72.2807V30.4987Z" fill="#131212"/>
<path d="M73.6586 30.4987H73.2046V26.2797H73.6586V30.4987Z" fill="#131212"/>
<path d="M74.8119 26.9261C74.7734 26.9268 74.7352 26.9198 74.6995 26.9055C74.6638 26.8912 74.6313 26.8698 74.604 26.8426C74.5757 26.8154 74.5533 26.7825 74.5385 26.746C74.5236 26.7096 74.5165 26.6704 74.5177 26.6311C74.517 26.592 74.5241 26.5532 74.5386 26.5169C74.5531 26.4806 74.5747 26.4476 74.6022 26.4199C74.6296 26.3921 74.6623 26.3701 74.6983 26.3552C74.7343 26.3403 74.773 26.3327 74.8119 26.333C74.8512 26.3322 74.8902 26.3394 74.9267 26.354C74.9632 26.3686 74.9964 26.3903 75.0243 26.418C75.0521 26.4457 75.074 26.4786 75.0889 26.5147C75.1039 26.5509 75.1116 26.5896 75.1116 26.6288C75.1116 26.6679 75.1039 26.7068 75.0889 26.7429C75.074 26.7791 75.0521 26.812 75.0243 26.8396C74.9966 26.8676 74.9635 26.8898 74.927 26.9046C74.8904 26.9195 74.8513 26.9268 74.8119 26.9261ZM75.034 30.4998H74.5798V27.6497H75.034V30.4998Z" fill="#131212"/>
<path d="M78.3808 30.2707C78.3808 31.3163 77.8813 31.8391 76.8823 31.8391C76.5634 31.8458 76.2475 31.7765 75.9606 31.6368V31.1814C76.2811 31.3595 76.5865 31.4485 76.8768 31.4485C77.576 31.4485 77.9257 31.0757 77.9257 30.3299V30.0183H77.9146C77.6983 30.3819 77.3728 30.5636 76.9378 30.5636C76.584 30.5636 76.2994 30.437 76.0841 30.1837C75.8689 29.9304 75.7611 29.5904 75.7607 29.1638C75.7607 28.6793 75.877 28.2946 76.1093 28.0092C76.3418 27.7238 76.6595 27.581 77.0624 27.5807C77.4452 27.5807 77.7292 27.7346 77.9146 28.0426H77.9257V27.6495H78.3797L78.3808 30.2707ZM77.9267 29.2082V28.7883C77.9285 28.681 77.9092 28.5744 77.8699 28.4745C77.8306 28.3747 77.772 28.2837 77.6976 28.2065C77.6251 28.128 77.5368 28.0659 77.4384 28.0242C77.3402 27.9825 77.2342 27.9622 77.1275 27.9646C76.846 27.9646 76.6257 28.0672 76.4666 28.2723C76.3075 28.4774 76.2279 28.7641 76.2279 29.1323C76.2279 29.4494 76.3043 29.7024 76.457 29.8912C76.5285 29.9832 76.6205 30.0569 76.7257 30.1065C76.8309 30.1561 76.9462 30.1801 77.0624 30.1766C77.1799 30.1804 77.2969 30.1578 77.4046 30.1106C77.5124 30.0635 77.6083 29.9929 77.6855 29.9039C77.8456 29.7258 77.9257 29.4947 77.9257 29.2103L77.9267 29.2082Z" fill="#131212"/>
<path d="M81.5867 29.1879H79.5798C79.5875 29.505 79.6726 29.7501 79.8352 29.9232C79.9977 30.0962 80.2215 30.1825 80.5068 30.1818C80.8287 30.1813 81.1405 30.0692 81.3895 29.8645V30.2931C81.1395 30.475 80.8093 30.5659 80.3988 30.5659C79.9971 30.5659 79.6815 30.4365 79.4521 30.1777C79.2226 29.9189 79.1079 29.5553 79.1079 29.0867C79.1079 28.6434 79.2333 28.2821 79.4838 28.0027C79.5995 27.8685 79.743 27.7613 79.9044 27.6889C80.0659 27.6165 80.2412 27.5806 80.418 27.5837C80.7897 27.5837 81.0776 27.7043 81.2815 27.9456C81.4853 28.1868 81.5862 28.5216 81.5842 28.9501L81.5867 29.1879ZM81.1205 28.8013C81.1184 28.5374 81.055 28.3323 80.9302 28.1859C80.8054 28.0395 80.632 27.9663 80.4099 27.9663C80.3077 27.9645 80.2063 27.9842 80.1122 28.0239C80.018 28.0636 79.9331 28.1226 79.8629 28.197C79.7075 28.3629 79.6101 28.575 79.5853 28.8013H81.1205Z" fill="#131212"/>
<path d="M84.6331 30.4989H84.1789V28.8734C84.1789 28.2682 83.9588 27.9658 83.5183 27.9661C83.411 27.9638 83.3045 27.9858 83.2067 28.0304C83.109 28.075 83.0225 28.141 82.9536 28.2237C82.8012 28.4049 82.7215 28.6366 82.73 28.8734V30.4989H82.2759V27.6488H82.73V28.1245H82.7411C82.9558 27.7641 83.2666 27.5842 83.6737 27.5845C83.9846 27.5845 84.2225 27.6857 84.3873 27.8881C84.5522 28.0905 84.6344 28.3814 84.6341 28.7606L84.6331 30.4989Z" fill="#131212"/>
<path d="M86.8087 30.4721C86.6768 30.5368 86.5307 30.5673 86.3839 30.5611C85.8863 30.5611 85.6373 30.2828 85.637 29.7261V28.0395H85.1484V27.6498H85.637V26.9539L86.0911 26.8062V27.6498H86.8073V28.0395H86.0911V29.6436C86.0911 29.8343 86.1234 29.971 86.1881 30.0525C86.2527 30.134 86.3601 30.175 86.51 30.175C86.6168 30.1776 86.7214 30.1443 86.8073 30.0804L86.8087 30.4721Z" fill="#131212"/>
<path d="M91.1436 30.4996H89.0342V26.5059H91.0528V26.9294H89.501V28.2568H90.9387V28.6818H89.501V30.0791H91.1441L91.1436 30.4996Z" fill="#131212"/>
<path d="M94.2073 30.4989H93.7531V28.8734C93.7531 28.2682 93.5329 27.9658 93.0925 27.9661C92.985 27.9642 92.8784 27.9866 92.7807 28.0315C92.683 28.0764 92.5966 28.1428 92.5278 28.2257C92.3756 28.407 92.296 28.6386 92.3048 28.8755V30.5009H91.8506V27.6488H92.3048V28.1245H92.3159C92.5305 27.7641 92.8414 27.5842 93.2484 27.5845C93.5593 27.5845 93.797 27.6857 93.9616 27.8881C94.126 28.0905 94.2084 28.3814 94.2088 28.7606L94.2073 30.4989Z" fill="#131212"/>
<path d="M96.383 30.4721C96.2512 30.5368 96.1052 30.5674 95.9586 30.5611C95.4603 30.5611 95.2114 30.2828 95.2117 29.7261V28.0395H94.7231V27.6498H95.2117V26.9539L95.6658 26.8062V27.6498H96.382V28.0395H95.6658V29.6436C95.6658 29.8343 95.6982 29.971 95.7633 30.0525C95.8284 30.134 95.9354 30.175 96.0853 30.175C96.1919 30.1776 96.2964 30.1443 96.382 30.0804L96.383 30.4721Z" fill="#131212"/>
<path d="M99.2752 29.1879H97.2707C97.2781 29.505 97.3633 29.7501 97.5261 29.9232C97.689 30.0962 97.9128 30.1825 98.1977 30.1818C98.5197 30.1811 98.8314 30.069 99.0804 29.8645V30.2931C98.8305 30.475 98.5002 30.5659 98.0898 30.5659C97.6881 30.5659 97.3725 30.4365 97.143 30.1777C96.9136 29.9189 96.798 29.5553 96.7964 29.0867C96.7964 28.6434 96.9216 28.2821 97.1723 28.0027C97.2878 27.8685 97.4315 27.7613 97.5928 27.6889C97.7543 27.6165 97.9296 27.5806 98.1064 27.5837C98.4785 27.5837 98.7663 27.7043 98.9699 27.9456C99.1734 28.1868 99.2743 28.5216 99.2727 28.9501L99.2752 29.1879ZM98.8089 28.8013C98.8069 28.5374 98.7435 28.3323 98.6186 28.1859C98.4939 28.0395 98.3204 27.9663 98.0984 27.9663C97.9962 27.9645 97.8948 27.9842 97.8006 28.0239C97.7064 28.0636 97.6215 28.1226 97.5514 28.197C97.3959 28.3629 97.2985 28.575 97.2737 28.8013H98.8089Z" fill="#131212"/>
<path d="M101.445 28.1116C101.365 28.0502 101.25 28.0196 101.1 28.0196C100.906 28.0196 100.744 28.1115 100.613 28.2953C100.483 28.4792 100.418 28.7297 100.418 29.0468V30.4997H99.9634V27.6497H100.418V28.2367H100.429C100.481 28.0553 100.584 27.8927 100.725 27.7681C100.849 27.6593 101.008 27.5994 101.173 27.5995C101.265 27.5953 101.357 27.6085 101.445 27.6385V28.1116Z" fill="#131212"/>
<path d="M102.405 30.087H102.394V31.8097H101.939V27.6495H102.394V28.1503H102.405C102.629 27.7718 102.956 27.5826 103.387 27.5826C103.753 27.5826 104.039 27.7102 104.245 27.9652C104.45 28.2201 104.553 28.562 104.553 28.9906C104.553 29.4673 104.437 29.8489 104.206 30.1356C103.974 30.4223 103.658 30.5656 103.257 30.5656C102.888 30.5656 102.604 30.406 102.405 30.087ZM102.394 28.9375V29.3357C102.388 29.5579 102.471 29.7734 102.623 29.9352C102.704 30.0189 102.803 30.084 102.911 30.1263C103.02 30.1686 103.137 30.1869 103.253 30.1802C103.37 30.1735 103.484 30.1419 103.587 30.0874C103.69 30.0329 103.781 29.9568 103.852 29.8644C104.008 29.6529 104.087 29.3588 104.086 28.9821C104.086 28.6647 104.013 28.4161 103.867 28.2363C103.796 28.1481 103.705 28.0777 103.602 28.0309C103.499 27.9841 103.386 27.9621 103.273 27.9666C103.153 27.9621 103.033 27.9847 102.923 28.0326C102.813 28.0805 102.714 28.1525 102.635 28.2434C102.471 28.4365 102.385 28.684 102.394 28.9375Z" fill="#131212"/>
<path d="M106.762 28.1116C106.682 28.0502 106.567 28.0196 106.418 28.0196C106.223 28.0196 106.061 28.1115 105.931 28.2953C105.801 28.4792 105.735 28.7297 105.735 29.0468V30.4997H105.281V27.6497H105.735V28.2367H105.746C105.798 28.0553 105.901 27.8927 106.043 27.7681C106.167 27.6593 106.325 27.5994 106.49 27.5995C106.582 27.5953 106.675 27.6085 106.762 27.6385V28.1116Z" fill="#131212"/>
<path d="M107.489 26.9261C107.45 26.9268 107.412 26.9198 107.376 26.9055C107.341 26.8912 107.308 26.8698 107.281 26.8426C107.252 26.8154 107.23 26.7825 107.215 26.746C107.2 26.7096 107.193 26.6704 107.194 26.6311C107.194 26.592 107.201 26.5532 107.215 26.5169C107.23 26.4806 107.251 26.4476 107.279 26.4199C107.306 26.3921 107.339 26.3701 107.375 26.3552C107.411 26.3403 107.45 26.3327 107.489 26.333C107.528 26.3322 107.567 26.3394 107.603 26.354C107.64 26.3686 107.673 26.3903 107.701 26.418C107.729 26.4457 107.751 26.4786 107.766 26.5147C107.781 26.5509 107.788 26.5896 107.788 26.6288C107.788 26.6679 107.781 26.7068 107.766 26.7429C107.751 26.7791 107.729 26.812 107.701 26.8396C107.673 26.8676 107.64 26.8898 107.604 26.9046C107.567 26.9195 107.528 26.9268 107.489 26.9261ZM107.711 30.4998H107.257V27.6497H107.711V30.4998Z" fill="#131212"/>
<path d="M108.46 30.3968V29.907C108.695 30.0863 108.983 30.1831 109.279 30.1822C109.679 30.1822 109.879 30.0487 109.879 29.7814C109.881 29.7134 109.863 29.6462 109.828 29.5882C109.791 29.5326 109.744 29.4848 109.689 29.4474C109.625 29.4033 109.556 29.3665 109.484 29.3377C109.405 29.3053 109.321 29.2713 109.232 29.2364C109.118 29.1922 109.008 29.1415 108.9 29.0846C108.812 29.0394 108.731 28.9812 108.661 28.912C108.598 28.8498 108.549 28.7754 108.516 28.6934C108.482 28.602 108.465 28.5048 108.466 28.407C108.464 28.2827 108.495 28.1603 108.558 28.0527C108.619 27.9494 108.703 27.8608 108.802 27.7937C108.909 27.722 109.026 27.6689 109.15 27.6363C109.282 27.6019 109.418 27.5848 109.554 27.5857C109.781 27.5817 110.006 27.6253 110.215 27.7137V28.1757C110 28.0366 109.749 27.9648 109.493 27.9698C109.415 27.9687 109.338 27.9787 109.263 27.9991C109.2 28.0157 109.14 28.0436 109.087 28.0811C109.039 28.1138 109 28.1571 108.973 28.2076C108.946 28.2576 108.932 28.3137 108.932 28.3706C108.93 28.4351 108.944 28.499 108.973 28.5568C109.002 28.6096 109.042 28.6551 109.091 28.6904C109.149 28.7332 109.212 28.7688 109.279 28.7961C109.354 28.828 109.437 28.8625 109.532 28.8973C109.647 28.9408 109.76 28.9904 109.87 29.0461C109.963 29.0921 110.049 29.1501 110.126 29.2187C110.195 29.2807 110.25 29.3564 110.288 29.4408C110.328 29.535 110.347 29.6366 110.345 29.7389C110.348 29.8677 110.316 29.9947 110.252 30.1063C110.19 30.2105 110.105 30.2991 110.003 30.3654C109.893 30.4362 109.772 30.4876 109.645 30.5172C109.506 30.5513 109.364 30.5682 109.22 30.5678C108.957 30.5738 108.696 30.5151 108.46 30.3968Z" fill="#131212"/>
<path d="M113.328 29.1879H111.321C111.329 29.505 111.414 29.7501 111.576 29.9232C111.739 30.0962 111.963 30.1825 112.248 30.1818C112.57 30.1813 112.882 30.0692 113.131 29.8645V30.2931C112.881 30.475 112.551 30.5659 112.14 30.5659C111.738 30.5659 111.423 30.4365 111.193 30.1777C110.964 29.9189 110.849 29.5553 110.849 29.0867C110.849 28.6434 110.974 28.2821 111.225 28.0027C111.341 27.8685 111.484 27.7613 111.646 27.6889C111.807 27.6165 111.982 27.5806 112.159 27.5837C112.531 27.5837 112.819 27.7043 113.023 27.9456C113.227 28.1868 113.328 28.5216 113.328 28.9501V29.1879ZM112.862 28.8013C112.86 28.5374 112.796 28.3323 112.671 28.1859C112.547 28.0395 112.373 27.9663 112.151 27.9663C112.049 27.9645 111.948 27.9842 111.853 28.0239C111.759 28.0636 111.674 28.1226 111.604 28.197C111.449 28.3629 111.351 28.575 111.327 28.8013H112.862Z" fill="#131212"/>
<path d="M113.844 30.3968V29.907C114.079 30.0864 114.367 30.1831 114.663 30.1822C115.062 30.1822 115.262 30.0487 115.262 29.7814C115.265 29.7134 115.247 29.6462 115.212 29.5882C115.175 29.5326 115.128 29.4848 115.073 29.4474C115.009 29.4033 114.94 29.3665 114.868 29.3377C114.789 29.3039 114.705 29.2701 114.615 29.2364C114.502 29.1921 114.391 29.1414 114.283 29.0846C114.196 29.0392 114.115 28.9811 114.045 28.912C113.982 28.8498 113.933 28.7754 113.9 28.6934C113.866 28.602 113.848 28.5048 113.85 28.407C113.848 28.2827 113.879 28.1603 113.942 28.0527C114.003 27.9494 114.086 27.8608 114.186 27.7937C114.292 27.7219 114.41 27.6688 114.534 27.6363C114.666 27.6018 114.802 27.5847 114.938 27.5857C115.165 27.5817 115.39 27.6253 115.598 27.7137V28.1757C115.384 28.0366 115.132 27.9648 114.877 27.9698C114.799 27.9687 114.722 27.9786 114.647 27.9991C114.583 28.0158 114.524 28.0437 114.47 28.0811C114.423 28.114 114.384 28.1572 114.356 28.2076C114.329 28.2576 114.316 28.3137 114.316 28.3706C114.314 28.4351 114.328 28.499 114.356 28.5568C114.385 28.6096 114.426 28.6551 114.475 28.6904C114.533 28.7332 114.596 28.7688 114.663 28.7961C114.737 28.8278 114.821 28.8616 114.916 28.8973C115.031 28.9408 115.144 28.9904 115.254 29.0461C115.347 29.0921 115.432 29.1501 115.51 29.2187C115.578 29.2804 115.634 29.3557 115.672 29.4399C115.712 29.534 115.732 29.6357 115.729 29.7379C115.732 29.8666 115.7 29.9936 115.636 30.1053C115.574 30.2094 115.489 30.2981 115.387 30.3643C115.278 30.4351 115.157 30.4864 115.03 30.5163C114.891 30.5502 114.748 30.5673 114.605 30.5669C114.341 30.5733 114.08 30.5149 113.844 30.3968Z" fill="#131212"/>
</g>
<g clip-path="url(#clip1_306_6422)">
<path d="M4.03318 12.8119V12.7208L4.03772 12.6757L4.04378 12.5851C4.05538 12.529 4.05841 12.4703 4.07255 12.4171C4.09522 12.3134 4.12679 12.2118 4.16691 12.1135C4.20793 12.021 4.25868 11.9331 4.31831 11.8514C4.55044 11.524 4.97436 11.2765 5.40734 11.2335C5.61019 11.211 5.81548 11.2315 6.0099 11.2937C6.20313 11.3556 6.3809 11.4582 6.5312 11.5948L6.59379 11.6611C6.61094 11.6813 6.62053 11.6915 6.6392 11.7117L6.66746 11.74L6.7265 11.8094L6.85469 11.9485L7.1378 12.2699L7.14486 12.2623C6.43129 11.402 3.45636 8.16682 1.77789 8.52561L1.69866 8.60253C1.42431 8.87202 1.17858 9.16931 0.965399 9.48964C0.510425 10.152 0.20744 10.9073 0.078221 11.7011C0.0439048 11.8949 0.0277558 12.0882 0.011607 12.281V12.2876C0.011607 12.2876 0 21.3272 0 26.1265C0 27.3234 0.266961 28.2373 0.66715 28.9296C3.60473 30.1977 6.96974 28.9296 6.96974 28.9296C6.9052 28.954 6.83912 28.9741 6.77192 28.9898C6.7154 29.0044 6.65837 29.0171 6.60085 29.0272C6.5353 29.0399 6.46909 29.0489 6.40252 29.054C6.21779 29.074 6.03129 29.0706 5.8474 29.0439C5.6705 29.0208 5.4969 28.977 5.33013 28.9133C5.01444 28.7921 4.72554 28.6098 4.47979 28.3769C4.42933 28.3299 4.38745 28.2808 4.34405 28.2317C3.959 27.7211 4.00088 26.7014 4.00088 26.7014L3.9706 16.2034C3.98574 15.3254 3.99987 14.4469 4.01753 13.5684L4.03318 12.8119Z" fill="url(#paint0_linear_306_6422)"/>
<path d="M4.28943 31.1414C4.53959 31.1666 4.79095 31.1781 5.04237 31.1758C5.36971 31.1806 5.69686 31.1577 6.02038 31.1075C6.3379 31.0518 6.64617 30.9522 6.93633 30.8114C7.22053 30.6836 7.49106 30.527 7.74377 30.3443C7.86792 30.2564 7.9872 30.1616 8.10107 30.0605C8.16364 30.0099 8.202 29.9694 8.24842 29.9249L8.38569 29.7943L9.48734 28.7513L10.583 27.6998C10.6265 27.6598 10.6562 27.6069 10.6678 27.5489C10.6796 27.4909 10.6726 27.4307 10.6481 27.3769C10.6325 27.3439 10.6105 27.3144 10.5836 27.29C10.5566 27.2656 10.525 27.2467 10.4907 27.2346C10.4564 27.2225 10.4201 27.2172 10.3838 27.2192C10.3475 27.2213 10.3119 27.2304 10.2792 27.2463L9.58828 27.5793L8.91507 27.9305L7.57573 28.6461L7.40818 28.7351C7.35367 28.763 7.2911 28.7994 7.2482 28.8156C7.15706 28.8589 7.06355 28.8972 6.96812 28.9299C6.96812 28.9299 3.60311 30.1982 0.665527 28.9299C1.87265 31.0205 4.28943 31.1414 4.28943 31.1414Z" fill="url(#paint1_linear_306_6422)"/>
<path d="M24.567 25.9607L24.3555 25.7137L23.3806 24.5726C20.7702 21.5361 18.1547 18.5079 15.4827 15.5267L15.4631 15.5069C14.8488 14.7802 14.2318 14.0561 13.6122 13.3344L11.7788 11.209L9.92938 9.09613L9.81329 8.96406L9.62964 8.7672C9.50468 8.63478 9.37297 8.50894 9.23503 8.39018C9.10029 8.26721 8.94639 8.15891 8.80055 8.04656C8.64462 7.94535 8.49121 7.83756 8.32621 7.74697C7.67065 7.37302 6.94417 7.14114 6.19368 7.06632C4.71556 6.91909 3.23834 7.3547 2.07496 8.28087C1.97403 8.35982 1.87311 8.44484 1.78076 8.5339C3.42986 8.21053 6.1634 11.1654 7.06212 12.1917L8.62343 13.9837L10.484 16.0869C11.6614 17.4108 12.8483 18.7255 14.0446 20.0311C16.0797 22.4815 18.1426 24.9086 20.21 27.3311L21.1895 28.4712L21.6795 29.0411L21.8016 29.1838L21.8652 29.2572L21.9661 29.3655L22.168 29.579C22.2381 29.6479 22.3113 29.7126 22.3839 29.7784C22.9799 30.3154 23.6864 30.7142 24.4534 30.9465C25.2203 31.1788 26.0289 31.2388 26.8216 31.1225C28.0077 30.9599 29.1132 30.4291 29.983 29.6043C27.518 29.2875 25.282 26.8164 24.567 25.9607Z" fill="url(#paint2_linear_306_6422)"/>
<path d="M30.9885 9.27254C28.2851 8.10559 25.2208 9.08631 24.749 9.25028C24.7934 9.23611 24.8388 9.22396 24.8837 9.21233C24.9402 9.19765 24.9973 9.185 25.0548 9.17488C25.1203 9.1621 25.1866 9.15331 25.2531 9.14856C25.4378 9.12828 25.6244 9.13151 25.8082 9.15818C25.9849 9.18143 26.1584 9.22524 26.325 9.28874C26.6407 9.41008 26.9296 9.59232 27.1754 9.82515C27.2258 9.87221 27.2677 9.9213 27.3116 9.97038C27.6961 10.481 27.6543 11.5007 27.6543 11.5007L27.6845 21.9987C27.6694 22.8767 27.6553 23.7552 27.6376 24.6337L27.624 25.3903V25.4814L27.6194 25.5263L27.6134 25.6169C27.6018 25.6737 27.5987 25.7319 27.5846 25.785C27.5619 25.8887 27.5304 25.9903 27.4903 26.0886C27.4492 26.1812 27.3985 26.269 27.3389 26.3507C27.1067 26.6782 26.6802 26.9256 26.2498 26.9686C26.047 26.9911 25.8417 26.9706 25.6472 26.9084C25.456 26.8455 25.2807 26.7419 25.133 26.6048L25.0725 26.5501C25.0725 26.5501 27.5488 29.3394 29.9867 29.6037C30.2618 29.3329 30.4748 29.0338 30.6932 28.7129C31.148 28.0506 31.4509 27.2956 31.5805 26.502C31.6153 26.3083 31.6309 26.1149 31.647 25.9221V25.9155C31.647 25.9155 31.6581 16.876 31.6581 12.0766C31.6557 10.8793 31.3877 9.96836 30.9885 9.27254Z" fill="url(#paint3_linear_306_6422)"/>
<path d="M24.697 9.26927C24.7141 9.26269 24.7313 9.25662 24.7474 9.25106C25.2183 9.0871 28.2836 8.10587 30.9875 9.27281C29.7818 7.18232 27.3646 7.06087 27.3646 7.06087C27.1144 7.0356 26.8631 7.02411 26.6116 7.02646C26.2848 7.02185 25.9581 7.04471 25.6351 7.09478C25.3176 7.15043 25.0094 7.25006 24.7192 7.39081C24.435 7.51885 24.1645 7.67534 23.9118 7.8579C23.7877 7.94609 23.6684 8.04085 23.5544 8.1418C23.4918 8.1924 23.4535 8.23288 23.4071 8.27741L23.2699 8.40797L22.1682 9.45094L21.0726 10.5025C21.0303 10.5433 21.0018 10.5963 20.9913 10.6542C20.9808 10.7121 20.9888 10.7718 21.014 10.8249C21.0297 10.8579 21.0516 10.8874 21.0786 10.9118C21.1057 10.9363 21.1373 10.9551 21.1717 10.9672C21.206 10.9794 21.2424 10.9846 21.2787 10.9826C21.3151 10.9805 21.3506 10.9713 21.3834 10.9554L22.0703 10.6214L22.7394 10.2723L24.0788 9.55722L24.2468 9.46815C24.3008 9.43981 24.3634 9.40337 24.4063 9.38718C24.4976 9.34374 24.5912 9.30556 24.6869 9.27281C24.6869 9.27281 24.7081 9.26472 24.7495 9.25055L24.697 9.26927Z" fill="url(#paint4_linear_306_6422)"/>
<path d="M24.7487 9.25159C24.7311 9.25716 24.7138 9.26324 24.6982 9.26983L24.7487 9.25159Z" fill="url(#paint5_linear_306_6422)"/>
<path d="M24.7487 9.25159C24.7311 9.25716 24.7138 9.26324 24.6982 9.26983L24.7487 9.25159Z" fill="url(#paint6_linear_306_6422)"/>
<path d="M30.9885 9.27251C28.2846 8.10556 25.2193 9.0868 24.7485 9.25075C25.2209 9.08629 28.2851 8.10556 30.9885 9.27251Z" fill="url(#paint7_linear_306_6422)"/>
<path d="M30.9885 9.27251C28.2846 8.10556 25.2193 9.0868 24.7485 9.25075C25.2209 9.08629 28.2851 8.10556 30.9885 9.27251Z" fill="url(#paint8_linear_306_6422)"/>
</g>
<g clip-path="url(#clip2_306_6422)">
<path fill-rule="evenodd" clip-rule="evenodd" d="M37.4967 4.02355V4.01849C37.4903 3.97045 37.467 3.92631 37.4309 3.8941C37.3947 3.86187 37.3483 3.84372 37.3 3.84294C35.0116 3.60667 33.5087 2.50679 32.8998 0.167905C32.8928 0.124976 32.8721 0.0854537 32.841 0.0551987C32.8098 0.0249437 32.7697 0.0055662 32.7267 -6.10352e-05H32.7081H32.6793H32.6707L32.6561 0.00297451H32.6521C32.6084 0.0142692 32.5698 0.039882 32.5424 0.0757319C32.515 0.111582 32.5003 0.155606 32.5007 0.200791C32.3211 2.61 31.0412 3.96234 28.8346 4.6084C28.7883 4.61713 28.7466 4.64177 28.7166 4.67808C28.6865 4.71438 28.6701 4.76006 28.6701 4.80723V4.82039C28.6701 4.82039 28.6701 4.82595 28.6701 4.82899V4.83405C28.6765 4.882 28.6998 4.92607 28.7358 4.95828C28.7718 4.99049 28.8181 5.00869 28.8663 5.0096C31.1547 5.24687 32.6576 6.34575 33.2665 8.68463C33.2741 8.72686 33.2948 8.76559 33.3257 8.79524C33.3567 8.82488 33.3962 8.8439 33.4386 8.84956H33.4557H33.4749H33.485H33.4936L33.5077 8.84704H33.5122L33.5304 8.84147C33.5699 8.82738 33.6041 8.8013 33.6281 8.76684C33.6522 8.73239 33.6649 8.69127 33.6646 8.64921C33.8447 6.24001 35.1276 4.88868 37.3318 4.2416C37.3781 4.23286 37.4199 4.20814 37.4499 4.17174C37.48 4.13533 37.4963 4.08953 37.4962 4.04227C37.4962 4.03822 37.4962 4.03367 37.4962 4.02962C37.4962 4.02558 37.4962 4.02456 37.4962 4.02203L37.4967 4.02355Z" fill="url(#paint9_linear_306_6422)"/>
</g>
<defs>
<linearGradient id="paint0_linear_306_6422" x1="0.615171" y1="6.74077" x2="6.45279" y2="31.9608" gradientUnits="userSpaceOnUse">
<stop stop-color="#000003"/>
<stop offset="0.01" stop-color="#020308"/>
<stop offset="0.13" stop-color="#152946"/>
<stop offset="0.25" stop-color="#254776"/>
<stop offset="0.35" stop-color="#305C99"/>
<stop offset="0.43" stop-color="#3769AE"/>
<stop offset="0.48" stop-color="#396EB6"/>
<stop offset="0.56" stop-color="#386BB2"/>
<stop offset="0.64" stop-color="#3464A5"/>
<stop offset="0.71" stop-color="#2D5791"/>
<stop offset="0.79" stop-color="#244573"/>
<stop offset="0.87" stop-color="#182E4E"/>
<stop offset="0.95" stop-color="#091221"/>
<stop offset="1" stop-color="#000003"/>
</linearGradient>
<linearGradient id="paint1_linear_306_6422" x1="4.63664" y1="29.5655" x2="14.0143" y2="26.0767" gradientUnits="userSpaceOnUse">
<stop stop-color="#396EB6"/>
<stop offset="1" stop-color="#5C3D97"/>
</linearGradient>
<linearGradient id="paint2_linear_306_6422" x1="4.03843" y1="19.1055" x2="27.8657" y2="19.1055" gradientUnits="userSpaceOnUse">
<stop stop-color="#396EB6"/>
<stop offset="1" stop-color="#5C3D97"/>
</linearGradient>
<linearGradient id="paint3_linear_306_6422" x1="24.1661" y1="30.9224" x2="30.9804" y2="8.94768" gradientUnits="userSpaceOnUse">
<stop stop-color="#000003"/>
<stop offset="0.14" stop-color="#13253F"/>
<stop offset="0.3" stop-color="#274C7F"/>
<stop offset="0.42" stop-color="#3465A7"/>
<stop offset="0.49" stop-color="#396EB6"/>
<stop offset="0.59" stop-color="#386CB3"/>
<stop offset="0.67" stop-color="#3566A9"/>
<stop offset="0.74" stop-color="#305C99"/>
<stop offset="0.8" stop-color="#294E82"/>
<stop offset="0.86" stop-color="#1F3C65"/>
<stop offset="0.92" stop-color="#142641"/>
<stop offset="0.98" stop-color="#060C16"/>
<stop offset="1" stop-color="#000003"/>
</linearGradient>
<linearGradient id="paint4_linear_306_6422" x1="28.765" y1="9.96509" x2="18.9829" y2="7.87305" gradientUnits="userSpaceOnUse">
<stop stop-color="#396EB6"/>
<stop offset="1" stop-color="#5C3D97"/>
</linearGradient>
<linearGradient id="paint5_linear_306_6422" x1="18.5677" y1="29.2182" x2="25.3917" y2="7.21216" gradientUnits="userSpaceOnUse">
<stop stop-color="#000003"/>
<stop offset="0.14" stop-color="#13253F"/>
<stop offset="0.3" stop-color="#274C7F"/>
<stop offset="0.42" stop-color="#3465A7"/>
<stop offset="0.49" stop-color="#396EB6"/>
<stop offset="0.59" stop-color="#386CB3"/>
<stop offset="0.67" stop-color="#3566A9"/>
<stop offset="0.74" stop-color="#305C99"/>
<stop offset="0.8" stop-color="#294E82"/>
<stop offset="0.86" stop-color="#1F3C65"/>
<stop offset="0.92" stop-color="#142641"/>
<stop offset="0.98" stop-color="#060C16"/>
<stop offset="1" stop-color="#000003"/>
</linearGradient>
<linearGradient id="paint6_linear_306_6422" x1="28.7374" y1="10.1238" x2="18.9403" y2="8.02853" gradientUnits="userSpaceOnUse">
<stop stop-color="#396EB6"/>
<stop offset="1" stop-color="#5C3D97"/>
</linearGradient>
<linearGradient id="paint7_linear_306_6422" x1="21.4486" y1="30.0793" x2="28.2629" y2="8.10508" gradientUnits="userSpaceOnUse">
<stop stop-color="#000003"/>
<stop offset="0.14" stop-color="#13253F"/>
<stop offset="0.3" stop-color="#274C7F"/>
<stop offset="0.42" stop-color="#3465A7"/>
<stop offset="0.49" stop-color="#396EB6"/>
<stop offset="0.59" stop-color="#386CB3"/>
<stop offset="0.67" stop-color="#3566A9"/>
<stop offset="0.74" stop-color="#305C99"/>
<stop offset="0.8" stop-color="#294E82"/>
<stop offset="0.86" stop-color="#1F3C65"/>
<stop offset="0.92" stop-color="#142641"/>
<stop offset="0.98" stop-color="#060C16"/>
<stop offset="1" stop-color="#000003"/>
</linearGradient>
<linearGradient id="paint8_linear_306_6422" x1="28.8816" y1="9.41673" x2="19.0996" y2="7.32469" gradientUnits="userSpaceOnUse">
<stop stop-color="#396EB6"/>
<stop offset="1" stop-color="#5C3D97"/>
</linearGradient>
<linearGradient id="paint9_linear_306_6422" x1="37.9707" y1="-0.44738" x2="26.7532" y2="10.6886" gradientUnits="userSpaceOnUse">
<stop stop-color="#396EB6"/>
<stop offset="1" stop-color="#5C3D97"/>
</linearGradient>
<clipPath id="clip0_306_6422">
<rect width="76.6663" height="22.8311" fill="white" transform="translate(39.063 9.00934)"/>
</clipPath>
<clipPath id="clip1_306_6422">
<rect width="31.6579" height="24.154" fill="white" transform="translate(0 7.02502)"/>
</clipPath>
<clipPath id="clip2_306_6422">
<rect width="8.82682" height="8.84963" fill="white" transform="translate(28.6699 6.10352e-05)"/>
</clipPath>
</defs>
</svg>
